<?xml version="1.0" encoding="UTF-8" standalone="no"?>
<!-- Created with Inkscape (http://www.inkscape.org/) -->

<svg
   xmlns:dc="http://purl.org/dc/elements/1.1/"
   xmlns:cc="http://creativecommons.org/ns#"
   xmlns:rdf="http://www.w3.org/1999/02/22-rdf-syntax-ns#"
   xmlns:svg="http://www.w3.org/2000/svg"
   xmlns="http://www.w3.org/2000/svg"
   xmlns:sodipodi="http://sodipodi.sourceforge.net/DTD/sodipodi-0.dtd"
   xmlns:inkscape="http://www.inkscape.org/namespaces/inkscape"
   id="svg2"
   version="1.1"
   inkscape:version="0.48.4 r9939"
   width="450"
   height="500"
   sodipodi:docname="abeille.svg">
  <metadata
     id="metadata8">
    <rdf:RDF>
      <cc:Work
         rdf:about="">
        <dc:format>image/svg+xml</dc:format>
        <dc:type
           rdf:resource="http://purl.org/dc/dcmitype/StillImage" />
        <dc:title></dc:title>
      </cc:Work>
    </rdf:RDF>
  </metadata>
  <defs
     id="defs6" />
  <sodipodi:namedview
     pagecolor="#ffffff"
     bordercolor="#666666"
     borderopacity="1"
     objecttolerance="10"
     gridtolerance="10"
     guidetolerance="10"
     inkscape:pageopacity="0"
     inkscape:pageshadow="2"
     inkscape:window-width="1285"
     inkscape:window-height="831"
     id="namedview4"
     showgrid="false"
     inkscape:zoom="0.72615385"
     inkscape:cx="151.29677"
     inkscape:cy="227.76974"
     inkscape:window-x="0"
     inkscape:window-y="24"
     inkscape:window-maximized="0"
     inkscape:current-layer="svg2"
     showguides="true"
     inkscape:guide-bbox="true">
    <sodipodi:guide
       orientation="1,0"
       position="615.4226,1581.4024"
       id="guide3816" />
  </sodipodi:namedview>
  <path
     style="fill:#ffcc00;fill-opacity:1;stroke:none"
     d="M 220.1135,7.1128181 6.056144,130.61079 l 0,241.83933 L 220.1135,496.991 434.19983,372.45012 l 0,-241.83933 L 220.1135,7.1128181 z M 146.55935,90.053162 c 22.95712,-0.368715 54.3877,55.602118 45.946,84.823378 -2.56768,0.3726 -4.32611,0.70338 -7.44522,2.40449 -10.89755,-50.384 -42.55584,-63.25673 -61.27099,-71.93185 0.34752,-5.04247 1.6227,-9.855566 19.43869,-14.803532 1.08226,-0.30057 2.20248,-0.474352 3.33152,-0.492486 z m 153.27886,0 c 1.12904,0.01813 2.24926,0.191916 3.33152,0.492486 17.81599,4.947966 19.09117,9.761062 19.43869,14.803532 -18.71514,8.67512 -50.37344,21.54785 -61.27099,71.93185 -3.11911,-1.70111 -4.87754,-2.03189 -7.44522,-2.40449 -8.4417,-29.22126 22.98888,-85.192093 45.946,-84.823378 z M 97.977108,103.611 c 34.425112,-0.0782 76.590762,32.02068 85.692472,74.655 0,0 -20.66601,5.90031 -39.22502,29.23046 C 125.855,230.86504 32.295338,166.84154 61.591128,122.5572 c 8.69717,-13.14691 21.85093,-18.91319 36.38598,-18.9462 z m 250.443342,0 c 14.53505,0.033 27.68881,5.79929 36.38598,18.9462 29.29579,44.28434 -64.26386,108.30784 -82.85343,84.93926 -18.559,-23.33015 -39.22502,-29.23046 -39.22502,-29.23046 9.10171,-42.63432 51.26736,-74.73319 85.69247,-74.655 z m -125.06234,67.99196 c 53.0541,0 96.06364,43.00954 96.06364,96.06363 0,53.0541 -43.00954,96.06364 -96.06364,96.06364 -53.05409,0 -96.06363,-43.00954 -96.06363,-96.06364 0,-53.05409 43.00954,-96.06363 96.06363,-96.06363 z m -50.40733,61.32893 c -11.66437,0 -21.11894,9.45456 -21.11894,21.11893 0,11.66437 9.45457,21.11894 21.11894,21.11894 11.66437,0 21.11893,-9.45457 21.11893,-21.11894 0,-11.66437 -9.45456,-21.11893 -21.11893,-21.11893 z m 98.75782,0 c -11.66438,0 -21.11894,9.45456 -21.11894,21.11893 0,11.66437 9.45456,21.11894 21.11894,21.11894 11.66437,0 21.11893,-9.45457 21.11893,-21.11894 0,-11.66437 -9.45456,-21.11893 -21.11893,-21.11893 z m -96.3823,8.83576 c 6.96099,0 12.60183,5.66981 12.60183,12.63081 0,6.96099 -5.64084,12.60183 -12.60183,12.60183 -6.961,0 -12.60184,-5.64084 -12.60184,-12.60183 0,-6.961 5.64084,-12.63081 12.60184,-12.63081 z m 94.00678,0 c 6.961,0 12.60183,5.66981 12.60183,12.63081 0,6.96099 -5.64083,12.60183 -12.60183,12.60183 -6.961,0 -12.6308,-5.64084 -12.6308,-12.60183 0,-6.961 5.6698,-12.63081 12.6308,-12.63081 z m -118.94972,91.9789 c 0,0 -33.80361,18.41764 -39.25399,27.9558 -5.45038,9.53816 -10.20929,57.20659 -13.615772,29.9547 -3.40649,-27.2519 -2.99662,-37.47157 52.869762,-57.9105 z m 147.05036,0 c 55.86638,20.43893 56.27625,30.6586 52.86976,57.9105 -3.40649,27.25189 -8.16539,-20.41654 -13.61577,-29.9547 -5.45038,-9.53816 -39.25399,-27.9558 -39.25399,-27.9558 z m -142.47314,3.4474 c 0,0 -20.41467,32.49809 -20.36573,43.48357 0.0489,10.98549 19.76273,54.66236 3.18667,32.76477 -16.57605,-21.8976 -20.9832,-30.61453 17.17906,-76.24834 z m 137.89592,0 c 38.16225,45.63381 33.75511,54.35074 17.17905,76.24834 -16.57605,21.89759 3.16673,-21.77928 3.21564,-32.76477 0.0489,-10.98548 -20.39469,-43.48357 -20.39469,-43.48357 z"
     id="path4049"
     inkscape:connector-curvature="0" />
</svg>
