<?xml version="1.0" encoding="UTF-8" standalone="no"?>
<!-- Created with Inkscape (http://www.inkscape.org/) -->

<svg
   xmlns:dc="http://purl.org/dc/elements/1.1/"
   xmlns:cc="http://creativecommons.org/ns#"
   xmlns:rdf="http://www.w3.org/1999/02/22-rdf-syntax-ns#"
   xmlns:svg="http://www.w3.org/2000/svg"
   xmlns="http://www.w3.org/2000/svg"
   xmlns:sodipodi="http://sodipodi.sourceforge.net/DTD/sodipodi-0.dtd"
   xmlns:inkscape="http://www.inkscape.org/namespaces/inkscape"
   width="1024mm"
   height="768mm"
   viewBox="0 0 3628.3464 2721.2598"
   id="svg2"
   version="1.1"
   inkscape:version="0.91 r"
   sodipodi:docname="fondscore.svg">
  <defs
     id="defs4" />
  <sodipodi:namedview
     id="base"
     pagecolor="#ffffff"
     bordercolor="#666666"
     borderopacity="1.0"
     inkscape:pageopacity="0.0"
     inkscape:pageshadow="2"
     inkscape:zoom="0.1425258"
     inkscape:cx="1233.3976"
     inkscape:cy="1881.8538"
     inkscape:document-units="px"
     inkscape:current-layer="layer1"
     showgrid="false"
     inkscape:window-width="1535"
     inkscape:window-height="876"
     inkscape:window-x="65"
     inkscape:window-y="24"
     inkscape:window-maximized="1" />
  <metadata
     id="metadata7">
    <rdf:RDF>
      <cc:Work
         rdf:about="">
        <dc:format>image/svg+xml</dc:format>
        <dc:type
           rdf:resource="http://purl.org/dc/dcmitype/StillImage" />
        <dc:title></dc:title>
      </cc:Work>
    </rdf:RDF>
  </metadata>
  <g
     inkscape:label="Calque 1"
     inkscape:groupmode="layer"
     id="layer1"
     transform="translate(0,1668.8976)">
    <path
       style="opacity:1;fill:#5fbcd3;fill-opacity:1;stroke:none;stroke-width:13.22900009;stroke-linecap:butt;stroke-linejoin:bevel;stroke-miterlimit:4;stroke-dasharray:none;stroke-dashoffset:0;stroke-opacity:1"
       d="m 12.868428,1379.9401 0,-1371.6463208 1809.249272,0 1809.2494,0 0,1371.6463208 0,1371.6463 -1809.2494,0 -1809.249272,0 0,-1371.6463 z"
       id="path4269"
       inkscape:connector-curvature="0"
       transform="translate(0,-1668.8976)" />
    <path
       style="opacity:1;fill:#5fbcd3;fill-opacity:1;stroke:none;stroke-width:13.22900009;stroke-linecap:butt;stroke-linejoin:bevel;stroke-miterlimit:4;stroke-dasharray:none;stroke-dashoffset:0;stroke-opacity:1"
       d="m 12.868428,-288.95745 0,-1371.64635 1809.249272,0 1809.2494,0 0,1371.64635 0,1371.64625 -1809.2494,0 -1809.249272,0 0,-1371.64625 z M 602.14244,-996.66181 c 143.93531,-63.81919 178.46909,-248.51869 65.50747,-350.35849 -92.00876,-82.9498 -228.09625,-84.1744 -320.44745,-2.8836 -48.14139,42.3757 -69.44727,90.4135 -69.33247,156.3218 0.17048,97.8863 58.31403,174.6749 156.59894,206.81619 42.35573,13.85122 125.13367,8.96576 167.67351,-9.8959 z"
       id="path4219"
       inkscape:connector-curvature="0" />
    <path
       style="opacity:1;fill:#5fbcd3;fill-opacity:1;stroke:none;stroke-width:13.22900009;stroke-linecap:butt;stroke-linejoin:bevel;stroke-miterlimit:4;stroke-dasharray:none;stroke-dashoffset:0;stroke-opacity:1"
       d="m 12.868428,1379.9401 0,-1371.6463208 1809.249272,0 1809.2494,0 0,1371.6463208 0,1371.6463 -1809.2494,0 -1809.249272,0 0,-1371.6463 z M 611.84431,669.64126 c 41.23157,-20.59205 88.17066,-69.52175 107.46725,-112.02476 16.26195,-35.81882 18.92346,-109.33992 5.57151,-153.90478 -11.63596,-38.83734 -65.34291,-97.35237 -111.81752,-121.82789 -33.13452,-17.45005 -45.80477,-19.78318 -107.4341,-19.78318 -61.62932,0 -74.29958,2.33313 -107.43409,19.78318 -46.47461,24.47552 -100.18157,82.99055 -111.81752,121.82789 -4.80877,16.05025 -8.71089,50.31071 -8.67137,76.13436 0.1365,89.22283 56.29112,167.73287 144.01154,201.34331 43.84173,16.79815 145.7619,10.60752 190.1243,-11.54813 z"
       id="path4223"
       inkscape:connector-curvature="0"
       transform="translate(0,-1668.8976)" />
    <path
       style="opacity:1;fill:#5fbcd3;fill-opacity:1;stroke:none;stroke-width:13.22900009;stroke-linecap:butt;stroke-linejoin:bevel;stroke-miterlimit:4;stroke-dasharray:none;stroke-dashoffset:0;stroke-opacity:1"
       d=""
       id="path4225"
       inkscape:connector-curvature="0"
       transform="translate(0,-1668.8976)" />
    <path
       style="opacity:1;fill:#5fbcd3;fill-opacity:1;stroke:none;stroke-width:13.22900009;stroke-linecap:butt;stroke-linejoin:bevel;stroke-miterlimit:4;stroke-dasharray:none;stroke-dashoffset:0;stroke-opacity:1"
       d=""
       id="path4227"
       inkscape:connector-curvature="0"
       transform="translate(0,-1668.8976)" />
    <path
       style="opacity:1;fill:#5fbcd3;fill-opacity:1;stroke:none;stroke-width:13.22900009;stroke-linecap:butt;stroke-linejoin:bevel;stroke-miterlimit:4;stroke-dasharray:none;stroke-dashoffset:0;stroke-opacity:1"
       d=""
       id="path4229"
       inkscape:connector-curvature="0"
       transform="translate(0,-1668.8976)" />
    <path
       style="opacity:1;fill:#5fbcd3;fill-opacity:1;stroke:none;stroke-width:13.22900009;stroke-linecap:butt;stroke-linejoin:bevel;stroke-miterlimit:4;stroke-dasharray:none;stroke-dashoffset:0;stroke-opacity:1"
       d=""
       id="path4231"
       inkscape:connector-curvature="0"
       transform="translate(0,-1668.8976)" />
    <path
       style="opacity:1;fill:#5fbcd3;fill-opacity:1;stroke:none;stroke-width:13.22900009;stroke-linecap:butt;stroke-linejoin:bevel;stroke-miterlimit:4;stroke-dasharray:none;stroke-dashoffset:0;stroke-opacity:1"
       d=""
       id="path4233"
       inkscape:connector-curvature="0"
       transform="translate(0,-1668.8976)" />
    <path
       style="opacity:1;fill:#5fbcd3;fill-opacity:1;stroke:none;stroke-width:13.22900009;stroke-linecap:butt;stroke-linejoin:bevel;stroke-miterlimit:4;stroke-dasharray:none;stroke-dashoffset:0;stroke-opacity:1"
       d=""
       id="path4235"
       inkscape:connector-curvature="0"
       transform="translate(0,-1668.8976)" />
    <path
       style="opacity:1;fill:#5fbcd3;fill-opacity:1;stroke:none;stroke-width:13.22900009;stroke-linecap:butt;stroke-linejoin:bevel;stroke-miterlimit:4;stroke-dasharray:none;stroke-dashoffset:0;stroke-opacity:1"
       d=""
       id="path4237"
       inkscape:connector-curvature="0"
       transform="translate(0,-1668.8976)" />
    <path
       style="opacity:1;fill:#5fbcd3;fill-opacity:1;stroke:none;stroke-width:13.22900009;stroke-linecap:butt;stroke-linejoin:bevel;stroke-miterlimit:4;stroke-dasharray:none;stroke-dashoffset:0;stroke-opacity:1"
       d=""
       id="path4239"
       inkscape:connector-curvature="0"
       transform="translate(0,-1668.8976)" />
    <path
       style="opacity:1;fill:#5fbcd3;fill-opacity:1;stroke:none;stroke-width:13.22900009;stroke-linecap:butt;stroke-linejoin:bevel;stroke-miterlimit:4;stroke-dasharray:none;stroke-dashoffset:0;stroke-opacity:1"
       d=""
       id="path4241"
       inkscape:connector-curvature="0"
       transform="translate(0,-1668.8976)" />
    <path
       style="opacity:1;fill:#5fbcd3;fill-opacity:1;stroke:none;stroke-width:13.22900009;stroke-linecap:butt;stroke-linejoin:bevel;stroke-miterlimit:4;stroke-dasharray:none;stroke-dashoffset:0;stroke-opacity:1"
       d="m 12.868428,1379.9401 0,-1371.6463208 1809.249272,0 1809.2494,0 0,1371.6463208 0,1371.6463 -1809.2494,0 -1809.249272,0 0,-1371.6463 z M 612.41105,666.79212 c 135.8945,-66.48699 163.83034,-246.74909 53.6639,-346.27786 -48.70274,-44.00001 -88.14109,-58.34062 -160.4435,-58.34062 -70.7517,0 -109.9946,13.7435 -156.94155,54.96347 -43.62587,38.30402 -65.18624,81.65117 -69.31515,139.35819 -7.68957,107.47175 52.52978,193.7693 160.06465,229.38123 36.58306,12.11508 130.34708,1.76984 172.97165,-19.08441 z"
       id="path4243"
       inkscape:connector-curvature="0"
       transform="translate(0,-1668.8976)" />
    <path
       style="opacity:1;fill:#5fbcd3;fill-opacity:1;stroke:none;stroke-width:13.22900009;stroke-linecap:butt;stroke-linejoin:bevel;stroke-miterlimit:4;stroke-dasharray:none;stroke-dashoffset:0;stroke-opacity:1"
       d="m 12.868428,1379.9401 0,-1371.6463208 1809.249272,0 1809.2494,0 0,1371.6463208 0,1371.6463 -1809.2494,0 -1809.249272,0 0,-1371.6463 z M 546.08215,685.96642 c 22.76183,-4.22773 14.44075,-5.55601 -36.77336,-5.87006 -98.25109,-0.60248 -157.87166,-32.00951 -196.9045,-103.7257 -42.36112,-77.83133 -33.70077,-168.04389 22.08904,-230.09559 34.8679,-38.7815 59.57741,-54.76866 108.62341,-70.27987 23.64799,-7.47887 25.73459,-9.40042 10.63739,-9.7959 -30.24567,-0.79232 -92.68346,34.82429 -124.58697,71.0686 -84.45347,95.9442 -60.66435,251.22861 48.85709,318.91658 54.86658,33.90941 101.41962,42.15919 168.0579,29.78194 z m 89.29167,-32.7922 C 718.49228,596.43727 753.35799,495.3944 721.78786,402.74119 700.37485,339.89747 610.42539,265.40263 557.11416,266.36082 c -14.21016,0.25543 -11.70425,2.44385 11.03201,9.63438 48.8748,15.45706 73.728,31.46778 107.97511,69.55881 49.67071,55.24579 61.71085,113.90444 39.0456,190.22673 -13.50469,45.47521 -64.01654,104.33073 -108.39162,126.29602 -17.20093,8.51432 -25.844,15.48319 -19.20681,15.48637 6.63719,0.003 28.1496,-10.97182 47.80537,-24.38891 z M 518.50213,260.63753 c -7.07887,-1.8499 -18.66248,-1.8499 -25.74135,0 -7.07887,1.84991 -1.28707,3.36346 12.87067,3.36346 14.15775,0 19.94955,-1.51355 12.87068,-3.36346 z"
       id="path4245"
       inkscape:connector-curvature="0"
       transform="translate(0,-1668.8976)" />
    <path
       style="opacity:1;fill:#5fbcd3;fill-opacity:1;stroke:none;stroke-width:13.22900009;stroke-linecap:butt;stroke-linejoin:bevel;stroke-miterlimit:4;stroke-dasharray:none;stroke-dashoffset:0;stroke-opacity:1"
       d="m 12.868428,1379.9401 0,-1371.6463208 1809.249272,0 1809.2494,0 0,1371.6463208 0,1371.6463 -1809.2494,0 -1809.249272,0 0,-1371.6463 z M 470.1991,680.85778 c -53.43506,-9.75898 -104.0807,-33.3778 -127.63961,-59.5253 -6.7558,-7.49811 -20.77772,-28.52614 -31.15981,-46.72896 -10.38209,-18.20281 -18.9164,-29.60697 -18.96513,-25.34258 -0.18033,15.7803 43.35203,75.55239 69.61373,95.58317 34.19252,26.07991 94.30209,47.12073 132.55116,46.39837 23.49906,-0.44378 18.58923,-2.5334 -24.40034,-10.3847 z m 84.92317,-0.37759 c -2.4439,-2.44389 -8.7873,-2.70518 -14.09646,-0.58065 -5.86706,2.3478 -4.12432,4.09054 4.44345,4.44345 7.75305,0.31934 12.0969,-1.41892 9.65301,-3.86282 z m 64.45454,-17.53632 c 2.57662,-4.16911 -0.37552,-5.4021 -6.92063,-2.89051 -12.74135,4.88932 -15.07257,10.1609 -4.49337,10.1609 3.80634,0 8.94264,-3.2717 11.414,-7.27043 z m 73.27056,-65.80267 c 19.24302,-27.76768 37.42585,-72.47029 31.77561,-78.12053 -1.84212,-1.84212 -7.26794,9.72989 -12.05738,25.7156 -4.85666,16.21007 -25.708,47.76297 -47.14506,71.34135 -29.12827,32.03786 -32.66894,38.04946 -14.61992,24.82272 13.09939,-9.59954 32.02042,-29.29115 42.04675,-43.75914 z m -402.832,-75.39938 c -2.3478,-5.86707 -4.09054,-4.12432 -4.44345,4.44345 -0.31934,7.75304 1.41892,12.0969 3.86282,9.65301 2.44389,-2.4439 2.70518,-8.78731 0.58065,-14.09646 z m -7.10118,-62.87325 c -1.6905,-11.17957 -3.11881,-3.77847 -3.17403,16.44688 -0.0552,20.22535 1.32792,29.37226 3.07364,20.32648 1.74572,-9.04579 1.7909,-25.59381 0.10039,-36.77336 z m 448.62524,-7.4558 c -1.68514,-11.12394 -3.06389,-2.02254 -3.06389,20.22535 0,22.24788 1.37875,31.34929 3.06389,20.22534 1.68514,-11.12394 1.68514,-29.32675 0,-40.45069 z M 295.21208,409.1234 c 3.60433,-16.11346 2.92198,-19.08874 -2.53008,-11.032 -4.10601,6.0676 -7.51614,17.37541 -7.57809,25.12846 -0.15032,18.81654 4.05917,12.94614 10.10817,-14.09646 z m 423.67007,-8.91624 c -8.01369,-12.49771 -8.22124,-12.48167 -4.19786,0.32441 2.32796,7.40972 4.49393,17.33852 4.81328,22.06402 0.41907,6.20116 1.58712,6.11089 4.19786,-0.32442 1.98948,-4.90393 -0.17651,-14.83274 -4.81328,-22.06401 z M 421.05272,283.97879 c 24.27042,-9.8573 38.30017,-18.00091 31.17721,-18.09693 -36.71669,-0.49489 -116.54304,54.0721 -141.11453,96.46187 -11.04774,19.05912 -5.15646,14.97081 25.74135,-17.86347 28.93528,-30.74873 52.32868,-47.55875 84.19597,-60.50147 z m 282.86615,84.15442 C 681.4603,326.16901 596.16971,265.44181 560.30811,265.88186 c -7.82428,0.096 5.63165,8.23503 29.90207,18.0867 31.91519,12.95478 54.3054,29.05279 80.90139,58.16612 41.26446,45.17018 44.39561,47.65149 32.8073,25.99853 z"
       id="path4247"
       inkscape:connector-curvature="0"
       transform="translate(0,-1668.8976)" />
    <path
       style="opacity:1;fill:#5fbcd3;fill-opacity:1;stroke:none;stroke-width:13.22900009;stroke-linecap:butt;stroke-linejoin:bevel;stroke-miterlimit:4;stroke-dasharray:none;stroke-dashoffset:0;stroke-opacity:1"
       d="m 12.868428,1379.9401 0,-1371.6463208 1809.249272,0 1809.2494,0 0,1371.6463208 0,1371.6463 -1809.2494,0 -1809.249272,0 0,-1371.6463 z M 465.18076,681.13304 c -24.27042,-5.30088 -45.34596,-8.43241 -46.83455,-6.95897 -1.48858,1.47345 6.78543,4.78436 18.38668,7.35758 11.60126,2.57323 24.4028,5.78262 28.44787,7.13198 4.04507,1.34936 15.62867,2.37553 25.74135,2.28038 10.11267,-0.0952 -1.47094,-4.51009 -25.74135,-9.81097 z m -55.16004,-13.80925 c 0,-1.58975 -5.1363,-4.86145 -11.414,-7.27043 -6.5451,-2.51159 -9.49725,-1.2786 -6.92062,2.89047 4.31909,6.98844 18.33462,10.33661 18.33462,4.37996 z m 285.46246,-78.01092 c 12.16172,-18.20281 24.21186,-41.37003 26.77811,-51.48271 2.56624,-10.11267 -3.48944,-2.2508 -13.45707,17.47083 -9.96762,19.72163 -30.80013,49.19076 -46.29448,65.48695 -19.30891,20.30817 -22.03177,25.22377 -8.65515,15.62519 10.73401,-7.70233 29.46688,-28.89745 41.62859,-47.10026 z m -336.94517,48.94525 c 0,-1.3956 -7.4466,-8.8422 -16.54801,-16.54801 l -16.54801,-14.01056 14.01056,16.54801 c 13.16647,15.55105 19.08546,19.89616 19.08546,14.01056 z M 314.40998,581.9582 c -4.32971,-8.09014 -9.52701,-14.70935 -11.54954,-14.70935 -2.02254,0 -0.13481,6.61921 4.19487,14.70935 4.32971,8.09014 9.52701,14.70934 11.54954,14.70934 2.02253,0 0.13481,-6.6192 -4.19487,-14.70934 z M 282.73334,466.26209 c -1.86473,-7.15586 -3.51305,-3.08185 -3.66293,9.05336 -0.14989,12.13521 1.3758,17.99 3.39041,13.01065 2.01462,-4.97935 2.13725,-14.90816 0.27249,-22.06401 z m 448.60804,-7.49465 c -1.84991,-7.07887 -3.36346,-1.28707 -3.36346,12.87068 0,14.15774 1.51355,19.94954 3.36346,12.87067 1.8499,-7.07887 1.8499,-18.66248 0,-25.74135 z m -441.32601,-47.3457 c -2.3478,-5.86707 -4.09054,-4.12432 -4.44345,4.44345 -0.31934,7.75304 1.41892,12.0969 3.86282,9.65301 2.44389,-2.4439 2.70518,-8.78731 0.58065,-14.09646 z m 105.296,-122.55723 c 8.33595,-7.82396 -20.03833,10.13589 -41.74181,26.42099 -12.84533,9.63843 -29.08316,26.42094 -36.08407,37.29448 -10.63436,16.51688 12.67676,-2.56777 77.82588,-63.71547 z m 279.17017,46.10525 c -30.41053,-31.2585 -85.40623,-66.90181 -92.41372,-59.89432 -1.67179,1.67178 9.88133,8.86614 25.67359,15.98746 15.79226,7.12131 42.99191,27.49679 60.44366,45.27883 17.45175,17.78204 33.38526,32.33098 35.40779,32.33098 2.02254,0 -11.07756,-15.16633 -29.11132,-33.70295 z M 424.73006,280.41664 c 6.06761,-3.92118 7.72241,-7.12942 3.67734,-7.12942 -4.04507,0 -12.31908,3.20824 -18.38668,7.12942 -6.06761,3.92119 -7.72241,7.12943 -3.67734,7.12943 4.04507,0 12.31908,-3.20824 18.38668,-7.12943 z"
       id="path4249"
       inkscape:connector-curvature="0"
       transform="translate(0,-1668.8976)" />
    <path
       style="opacity:1;fill:#5fbcd3;fill-opacity:1;stroke:none;stroke-width:13.22900009;stroke-linecap:butt;stroke-linejoin:bevel;stroke-miterlimit:4;stroke-dasharray:none;stroke-dashoffset:0;stroke-opacity:1"
       d="m 12.868428,1379.9401 0,-1371.6463208 1809.249272,0 1809.2494,0 0,1371.6463208 0,1371.6463 -1809.2494,0 -1809.249272,0 0,-1371.6463 z M 463.34209,680.05275 c -5.05634,-2.04028 -13.33034,-2.04028 -18.38668,0 -5.05634,2.04028 -0.91934,3.70959 9.19334,3.70959 10.11267,0 14.24968,-1.66931 9.19334,-3.70959 z m -53.32137,-12.72896 c 0,-1.58975 -5.1363,-4.86145 -11.414,-7.27043 -6.5451,-2.51159 -9.49725,-1.2786 -6.92062,2.89047 4.31909,6.98844 18.33462,10.33661 18.33462,4.37996 z m -51.48271,-29.30501 c 0,-1.52724 -5.7918,-7.31905 -12.87067,-12.87068 -11.66493,-9.14826 -11.92506,-8.88813 -2.7768,2.7768 9.60792,12.25103 15.64747,16.14702 15.64747,10.09388 z m 338.97522,-49.9397 c 11.16713,-20.86598 3.92437,-15.95957 -15.39236,10.42713 -10.82795,14.79101 -12.60391,19.92787 -4.65891,13.47555 7.06166,-5.73491 16.08472,-16.49112 20.05127,-23.90268 z m -0.6603,-228.94576 c 0,-1.2016 -14.06581,-15.26741 -31.25736,-31.25736 l -31.25736,-29.07264 29.07264,31.25736 c 27.03726,29.06903 33.44208,34.63701 33.44208,29.07264 z M 394.69849,290.19497 c 1.68544,-1.33301 1.31312,-2.42365 -0.82738,-2.42365 -7.5623,0 -61.16751,45.53616 -67.82839,57.61837 -3.71468,6.73806 9.52373,-2.37896 29.41869,-20.26002 19.89494,-17.88107 37.55163,-33.60168 39.23708,-34.9347 z m 235.96239,8.79722 c 0,-4.4608 -41.48505,-26.03047 -49.27881,-25.62194 -3.23468,0.16955 5.70238,6.65003 19.86012,14.40107 28.98824,15.87039 29.41869,16.03457 29.41869,11.22087 z M 424.73006,280.41664 c 6.06761,-3.92118 7.72241,-7.12942 3.67734,-7.12942 -4.04507,0 -12.31908,3.20824 -18.38668,7.12942 -6.06761,3.92119 -7.72241,7.12943 -3.67734,7.12943 4.04507,0 12.31908,-3.20824 18.38668,-7.12943 z"
       id="path4251"
       inkscape:connector-curvature="0"
       transform="translate(0,-1668.8976)" />
    <path
       style="opacity:1;fill:#5fbcd3;fill-opacity:1;stroke:none;stroke-width:13.22900009;stroke-linecap:butt;stroke-linejoin:bevel;stroke-miterlimit:4;stroke-dasharray:none;stroke-dashoffset:0;stroke-opacity:1"
       d="m 12.868428,1379.9401 0,-1371.6463208 1809.249272,0 1809.2494,0 0,1371.6463208 0,1371.6463 -1809.2494,0 -1809.249272,0 0,-1371.6463 z M 690.43638,598.50621 c 9.14826,-11.66492 8.88813,-11.92506 -2.77679,-2.77679 -7.07888,5.55163 -12.87068,11.34343 -12.87068,12.87067 0,6.05315 6.03955,2.15715 15.64747,-10.09388 z M 362.21535,317.19 c 7.32147,-8.09014 11.65697,-14.70934 9.63444,-14.70934 -2.02254,0 -9.66764,6.6192 -16.98911,14.70934 -7.32148,8.09014 -11.65697,14.70935 -9.63444,14.70935 2.02254,0 9.66764,-6.61921 16.98911,-14.70935 z m 246.38151,-32.30915 c 0,-1.58976 -5.1363,-4.86145 -11.41399,-7.27043 -6.54511,-2.51159 -9.49725,-1.27861 -6.92063,2.89046 4.31909,6.98844 18.33462,10.33661 18.33462,4.37997 z"
       id="path4253"
       inkscape:connector-curvature="0"
       transform="translate(0,-1668.8976)" />
    <path
       style="opacity:1;fill:#5fbcd3;fill-opacity:1;stroke:none;stroke-width:13.22900009;stroke-linecap:butt;stroke-linejoin:bevel;stroke-miterlimit:4;stroke-dasharray:none;stroke-dashoffset:0;stroke-opacity:1"
       d="m 12.868428,1379.9401 0,-1371.6463208 1809.249272,0 1809.2494,0 0,1371.6463208 0,1371.6463 -1809.2494,0 -1809.249272,0 0,-1371.6463 z M 366.83081,311.674 c 9.14826,-11.66492 8.88813,-11.92506 -2.77679,-2.77679 -12.25103,9.60791 -16.14703,15.64747 -10.09389,15.64747 1.52725,0 7.31905,-5.79181 12.87068,-12.87068 z"
       id="path4255"
       inkscape:connector-curvature="0"
       transform="translate(0,-1668.8976)" />
    <path
       style="opacity:1;fill:#5fbcd3;fill-opacity:1;stroke:none;stroke-width:13.22900009;stroke-linecap:butt;stroke-linejoin:bevel;stroke-miterlimit:4;stroke-dasharray:none;stroke-dashoffset:0;stroke-opacity:1"
       d="m 12.868428,1379.9401 0,-1371.6463208 1809.249272,0 1809.2494,0 0,1371.6463208 0,1371.6463 -1809.2494,0 -1809.249272,0 0,-1371.6463 z"
       id="path4257"
       inkscape:connector-curvature="0"
       transform="translate(0,-1668.8976)" />
    <path
       style="opacity:1;fill:#5fbcd3;fill-opacity:1;stroke:none;stroke-width:13.22900009;stroke-linecap:butt;stroke-linejoin:bevel;stroke-miterlimit:4;stroke-dasharray:none;stroke-dashoffset:0;stroke-opacity:1"
       d="m 12.868428,1379.9401 0,-1371.6463208 1809.249272,0 1809.2494,0 0,1371.6463208 0,1371.6463 -1809.2494,0 -1809.249272,0 0,-1371.6463 z"
       id="path4259"
       inkscape:connector-curvature="0"
       transform="translate(0,-1668.8976)" />
    <path
       style="opacity:1;fill:#5fbcd3;fill-opacity:1;stroke:none;stroke-width:13.22900009;stroke-linecap:butt;stroke-linejoin:bevel;stroke-miterlimit:4;stroke-dasharray:none;stroke-dashoffset:0;stroke-opacity:1"
       d="m 12.868428,1379.9401 0,-1371.6463208 1809.249272,0 1809.2494,0 0,1371.6463208 0,1371.6463 -1809.2494,0 -1809.249272,0 0,-1371.6463 z"
       id="path4261"
       inkscape:connector-curvature="0"
       transform="translate(0,-1668.8976)" />
    <path
       style="opacity:1;fill:#5fbcd3;fill-opacity:1;stroke:none;stroke-width:13.22900009;stroke-linecap:butt;stroke-linejoin:bevel;stroke-miterlimit:4;stroke-dasharray:none;stroke-dashoffset:0;stroke-opacity:1"
       d="m 12.868428,1379.9401 0,-1371.6463208 1809.249272,0 1809.2494,0 0,1371.6463208 0,1371.6463 -1809.2494,0 -1809.249272,0 0,-1371.6463 z"
       id="path4263"
       inkscape:connector-curvature="0"
       transform="translate(0,-1668.8976)" />
    <path
       style="opacity:1;fill:#5fbcd3;fill-opacity:1;stroke:none;stroke-width:13.22900009;stroke-linecap:butt;stroke-linejoin:bevel;stroke-miterlimit:4;stroke-dasharray:none;stroke-dashoffset:0;stroke-opacity:1"
       d="m 12.868428,1379.9401 0,-1371.6463208 1809.249272,0 1809.2494,0 0,1371.6463208 0,1371.6463 -1809.2494,0 -1809.249272,0 0,-1371.6463 z"
       id="path4265"
       inkscape:connector-curvature="0"
       transform="translate(0,-1668.8976)" />
    <path
       style="opacity:1;fill:#5fbcd3;fill-opacity:1;stroke:none;stroke-width:13.22900009;stroke-linecap:butt;stroke-linejoin:bevel;stroke-miterlimit:4;stroke-dasharray:none;stroke-dashoffset:0;stroke-opacity:1"
       d="m 12.868428,1379.9401 0,-1371.6463208 1809.249272,0 1809.2494,0 0,1371.6463208 0,1371.6463 -1809.2494,0 -1809.249272,0 0,-1371.6463 z"
       id="path4267"
       inkscape:connector-curvature="0"
       transform="translate(0,-1668.8976)" />
    <path
       style="opacity:1;fill:#5fbcd3;fill-opacity:1;stroke:none;stroke-width:13.22900009;stroke-linecap:butt;stroke-linejoin:bevel;stroke-miterlimit:4;stroke-dasharray:none;stroke-dashoffset:0;stroke-opacity:1"
       d="M 406.34338,667.43715 C 326.4158,629.74235 283.14586,562.16062 283.33534,475.31545 c 0.1502,-68.8419 15.96108,-105.43026 64.87922,-150.13868 90.76666,-82.95561 224.19074,-82.84264 315.12573,0.26682 47.80334,43.68956 66.62241,86.32108 66.15877,149.87186 -0.62524,85.70112 -61.10051,170.79693 -140.64168,197.89932 -53.1207,18.10004 -137.55129,15.42733 -182.514,-5.77762 z"
       id="path4221"
       inkscape:connector-curvature="0"
       transform="translate(0,-1668.8976)" />
    <path
       style="fill:#916f6f;fill-opacity:1;stroke:#000000;stroke-width:0.30093193px;stroke-linecap:butt;stroke-linejoin:miter;stroke-opacity:1"
       d="m 974.90091,411.01323 -344.02994,560.68442 686.19863,-1.06638 z m 77.06289,182.6904 c 37.9708,31.28518 17.4356,72.35716 -10.5586,91.6761 1.3401,3.89269 3.7191,12.82128 3.5702,19.4532 11.3168,6.92023 16.0598,-11.93342 38.2466,-14.67266 12.9548,-0.72087 55.1283,13.94779 56.0217,21.73316 0.8934,7.78526 -35.6161,39.95053 -51.9957,40.67141 -16.3795,0.72076 -46.5982,-13.38612 -44.5135,-9.78173 2.0847,3.60427 10.4236,29.3945 9.3813,44.53256 -1.0424,15.13806 -20.5393,35.45571 -25.751,44.82687 -5.2117,9.37105 -5.5024,64.72971 -7.1404,77.84929 -0.7445,14.27303 -17.2729,30.13797 -44.96919,31.14715 -19.8044,0.43246 -38.11536,-16.15159 -42.88032,-32.87544 -4.76495,-16.72396 -4.32703,-56.49035 -13.55914,-74.94425 -4.16934,-10.52462 -23.37805,-27.68045 -22.48462,-47.14354 0,-10.52461 5.79723,-32.00947 6.98847,-40.08303 -15.63505,-3.46012 -41.68879,4.59838 -55.98367,2.86832 -11.4657,-0.43257 -39.89969,-20.48332 -39.00627,-38.64893 1.48906,-6.19935 23.97313,-22.04476 48.69137,-22.90979 14.89051,-0.86503 41.10249,16.4359 43.33607,18.16608 2.23357,1.73005 4.30868,-1.01753 3.26634,-4.04508 -1.04233,-3.02766 -2.69789,-3.43117 -4.63365,-7.61216 -1.93577,-4.18099 -0.8796,-4.79054 -1.1774,-7.09721 -22.33577,-11.5338 -52.71942,-53.62825 -15.34424,-90.53619 -6.10511,45.99068 14.8854,64.16982 37.22116,73.25268 9.82774,-2.59509 43.941,-2.88763 53.1731,-2.0226 9.2321,0.86503 46.44639,-5.2077 53.74279,-0.88257 22.6336,-13.6963 39.3134,-39.6181 26.3586,-72.92164 z M 937.03403,748.77712 c -6.62922,0 -12.00193,7.92811 -12.00193,17.72479 0,9.79668 5.37271,17.76162 12.00193,17.76162 6.62922,0 12.00188,-7.96494 12.00188,-17.76162 0,-9.79668 -5.37266,-17.72479 -12.00188,-17.72479 z m 77.10097,0 c -6.6292,0 -12.0019,7.92811 -12.0019,17.72479 0,9.79668 5.3727,17.76162 12.0019,17.76162 6.6292,0 12.0019,-7.96494 12.0019,-17.76162 0,-9.79668 -5.3727,-17.72479 -12.0019,-17.72479 z"
       id="path2987"
       inkscape:connector-curvature="0"
       sodipodi:nodetypes="ccccssssssccsccccccssscccsccsssssssssssss" />
    <path
       style="fill:#ffcc00;fill-opacity:1;stroke:none"
       d="m 1792.9227,464.27874 -249.1731,135.5975 0,265.53306 249.1731,136.7426 249.2067,-136.7426 0,-265.53306 -249.2067,-135.5975 z m -85.6206,91.06622 c 26.7232,-0.40482 63.3099,61.04973 53.4834,93.13382 -2.9889,0.40911 -5.0358,0.77232 -8.6667,2.64008 -12.6852,-55.32028 -49.537,-69.45416 -71.3223,-78.97919 0.4045,-5.53652 1.8889,-10.82118 22.6276,-16.25396 1.2598,-0.32994 2.5637,-0.52076 3.878,-0.54075 z m 178.4241,0 c 1.3142,0.0198 2.6182,0.21081 3.878,0.54075 20.7386,5.43278 22.223,10.71744 22.6275,16.25396 -21.7852,9.52503 -58.6371,23.65891 -71.3224,78.97919 -3.6307,-1.86776 -5.6776,-2.23097 -8.6665,-2.64008 -9.8266,-32.08409 26.7601,-93.53864 53.4834,-93.13382 z M 1650.75,570.23118 c 40.0725,-0.0856 89.1554,35.15786 99.7502,81.96919 0,0 -24.0562,6.47837 -45.6598,32.09419 -21.6391,25.6581 -130.5471,-44.63799 -96.4454,-93.26096 10.124,-14.43495 25.4355,-20.7662 42.355,-20.80242 z m 291.5282,0 c 16.9194,0.0362 32.2311,6.36747 42.355,20.80242 34.1017,48.62297 -74.8062,118.91906 -96.4453,93.26096 -21.6036,-25.61582 -45.6599,-32.09419 -45.6599,-32.09419 10.5949,-46.81133 59.6778,-82.05505 99.7502,-81.96919 z m -145.5786,74.65328 c 61.7575,0 111.8227,47.22339 111.8227,105.47537 0,58.25198 -50.0652,105.47526 -111.8227,105.47526 -61.7575,0 -111.8227,-47.22328 -111.8227,-105.47526 0,-58.25198 50.0652,-105.47537 111.8227,-105.47537 z m -58.6766,67.3376 c -13.5779,0 -24.5834,10.38079 -24.5834,23.18798 0,12.80721 11.0055,23.18799 24.5834,23.18799 13.5779,0 24.5835,-10.38078 24.5835,-23.18799 0,-12.80719 -11.0056,-23.18798 -24.5835,-23.18798 z m 114.9589,0 c -13.5779,0 -24.5835,10.38079 -24.5835,23.18798 0,12.80721 11.0056,23.18799 24.5835,23.18799 13.5779,0 24.5835,-10.38078 24.5835,-23.18799 0,-12.80719 -11.0056,-23.18798 -24.5835,-23.18798 z m -112.1936,9.70136 c 8.1029,0 14.669,6.22529 14.669,13.86829 0,7.64298 -6.5661,13.83654 -14.669,13.83654 -8.103,0 -14.6692,-6.19356 -14.6692,-13.83654 0,-7.643 6.5662,-13.86829 14.6692,-13.86829 z m 109.4284,0 c 8.1029,0 14.6691,6.22529 14.6691,13.86829 0,7.64298 -6.5662,13.83654 -14.6691,13.83654 -8.1029,0 -14.7029,-6.19356 -14.7029,-13.83654 0,-7.643 6.6,-13.86829 14.7029,-13.86829 z m -138.4632,100.99037 c 0,0 -39.3491,20.22215 -45.6936,30.69472 -6.3445,10.47269 -11.8841,62.81132 -15.8494,32.88946 -3.9653,-29.92186 -3.4882,-41.1427 61.543,-63.58418 z m 171.1737,0 c 65.0311,22.44148 65.5082,33.66232 61.5429,63.58418 -3.9653,29.92186 -9.5049,-22.41677 -15.8494,-32.88946 -6.3445,-10.47257 -45.6935,-30.69472 -45.6935,-30.69472 z m -165.8456,3.78516 c 0,0 -23.7637,35.68204 -23.7067,47.74382 0.057,12.06178 23.0047,60.01785 3.7094,35.97488 -19.2953,-24.04298 -24.4254,-33.61402 19.9973,-83.7187 z m 160.5175,0 c 44.4227,50.10468 39.2926,59.67572 19.9972,83.7187 -19.2953,24.04297 3.6863,-23.9131 3.7432,-35.97488 0.057,-12.06178 -23.7404,-47.74382 -23.7404,-47.74382 z"
       id="path4049"
       inkscape:connector-curvature="0" />
    <path
       style="fill:#ff6600;stroke:#f30000;stroke-width:0.8127957;stroke-linecap:butt;stroke-linejoin:miter;stroke-miterlimit:4;stroke-dasharray:none;stroke-opacity:1"
       d="m 2647.5181,427.2215 c -171.2282,0 -310.0422,134.46882 -310.0422,300.36792 0,165.89914 138.814,300.39298 310.0422,300.39298 171.228,0 310.0163,-134.49384 310.0163,-300.39298 0,-165.8991 -138.7883,-300.36792 -310.0163,-300.36792 z m 198.9533,87.30521 c 0.7905,-0.0304 1.4127,0.06 1.8579,0.25002 9.4987,4.04936 -79.0138,60.35552 -90.0322,79.12968 -15.1979,19.87862 -14.0644,23.94375 -18.2438,30.2018 -4.1794,6.25813 -31.5296,6.24933 -25.8304,-19.15114 7.5989,-13.9886 14.4409,-28.34225 23.5596,-37.17718 8.6912,-8.42082 92.6144,-52.63378 108.6889,-53.25318 z m -396.3843,1.12503 c 14.0375,-0.84453 100.6036,44.66938 109.4373,53.22821 9.1187,8.83493 15.9349,23.18859 23.5338,37.17718 5.6991,25.40048 -21.651,25.40928 -25.8304,19.15115 -4.1795,-6.25806 -3.046,-10.29822 -18.2438,-30.17677 -11.0185,-18.77424 -99.5309,-75.10536 -90.0323,-79.15472 0.2969,-0.12657 0.6826,-0.19777 1.1354,-0.22505 z m 202.1274,107.70642 c 96.5064,0.73629 102.2235,73.25302 101.4636,107.85644 -0.7599,34.60351 -42.1182,215.69594 -102.9861,212.41279 -66.8028,-3.60334 -104.473,-175.95413 -102.5732,-218.2881 1.4053,-31.31491 8.3491,-99.03615 104.0957,-101.98113 z m 118.7269,19.75118 c 6.9065,-0.15601 14.356,2.29358 20.4114,6.40039 26.2163,19.14234 20.5165,42.33452 28.8753,53.37822 8.3589,11.04362 17.112,23.1885 11.7927,26.50158 -5.3192,3.31308 -19.7711,6.26654 -51.6866,-12.87581 -10.2586,-7.54645 -12.4208,-24.1256 -17.8825,-38.25228 -5.4617,-14.1266 -8.1235,-22.13668 -7.1737,-28.02663 3.9182,-4.83157 9.5693,-6.98778 15.6634,-7.12547 z m -241.6342,0.72509 c 6.5541,-0.13809 12.7226,1.99668 16.9021,7.15042 0.9498,5.88995 -1.712,13.90003 -7.1737,28.02664 -5.4618,14.12668 -7.6499,30.68079 -17.9084,38.22732 -31.9155,19.14234 -46.3416,16.18888 -51.6608,12.87572 -5.3193,-3.31307 3.408,-15.45788 11.7669,-26.50158 8.3588,-11.04362 2.659,-34.2358 28.8753,-53.37814 5.6992,-3.86527 12.6446,-6.26238 19.1986,-6.40038 z m 72.9496,69.52911 c -8.1821,0 -14.8118,6.44846 -14.8118,14.37589 0,7.92744 6.6297,14.35086 14.8118,14.35086 8.1821,0 14.8119,-6.42342 14.8119,-14.35086 0,-7.92743 -6.6298,-14.37589 -14.8119,-14.37589 z m 96.5092,0.37506 c -8.1822,0 -14.8119,6.42342 -14.8119,14.35085 0,7.92744 6.6297,14.35086 14.8119,14.35086 8.182,0 14.8118,-6.42342 14.8118,-14.35086 0,-7.92743 -6.6298,-14.35085 -14.8118,-14.35085 z m -21.263,176.81058 c -0.1807,0 -0.3602,0.0104 -0.5419,0.0248 -10.1762,0.82541 -22.0694,24.08056 -17.0827,27.30163 5.6992,3.68126 31.5473,-19.5254 21.2888,-26.15156 -1.1636,-0.80525 -2.3999,-1.17495 -3.6642,-1.17503 z m -52.1769,0.0248 c -1.0747,0.0888 -2.125,0.45987 -3.1224,1.15007 -10.2586,6.62616 15.5896,29.83282 21.2888,26.15156 5.1649,-3.33612 -7.7777,-28.1604 -18.1664,-27.30163 z m -27.069,42.37757 c 14.8179,0 9.8853,23.94535 51.2995,27.62661 39.8944,-3.31308 42.9478,-26.15588 51.6866,-25.0515 8.7387,1.10439 -9.5051,47.86835 -18.2439,46.02775 -6.0791,-0.73625 1.5162,-8.4824 -5.7027,-8.85053 -7.2191,-0.36811 -8.3627,34.24512 -27.74,33.87702 -13.6781,-0.7362 -23.9289,-34.24253 -28.4883,-32.40193 -4.5593,1.84061 0.7617,8.46431 -2.6578,9.20055 -10.6385,3.6812 -26.9924,-47.11489 -20.1534,-50.42797 z"
       id="path2987-6"
       inkscape:connector-curvature="0" />
  </g>
</svg>
