<?xml version="1.0" encoding="UTF-8" standalone="no"?>
<!-- Created with Inkscape (http://www.inkscape.org/) -->

<svg
   xmlns:dc="http://purl.org/dc/elements/1.1/"
   xmlns:cc="http://creativecommons.org/ns#"
   xmlns:rdf="http://www.w3.org/1999/02/22-rdf-syntax-ns#"
   xmlns:svg="http://www.w3.org/2000/svg"
   xmlns="http://www.w3.org/2000/svg"
   xmlns:sodipodi="http://sodipodi.sourceforge.net/DTD/sodipodi-0.dtd"
   xmlns:inkscape="http://www.inkscape.org/namespaces/inkscape"
   width="1024mm"
   height="768mm"
   viewBox="0 0 3628.3464 2721.2598"
   id="svg2"
   version="1.1"
   inkscape:version="0.91 r"
   sodipodi:docname="fond.svg">
  <defs
     id="defs4" />
  <sodipodi:namedview
     id="base"
     pagecolor="#ffffff"
     bordercolor="#666666"
     borderopacity="1.0"
     inkscape:pageopacity="0.0"
     inkscape:pageshadow="2"
     inkscape:zoom="0.13596799"
     inkscape:cx="1530.8727"
     inkscape:cy="1299.3981"
     inkscape:document-units="px"
     inkscape:current-layer="layer1"
     showgrid="false"
     inkscape:window-width="1535"
     inkscape:window-height="876"
     inkscape:window-x="65"
     inkscape:window-y="24"
     inkscape:window-maximized="1" />
  <metadata
     id="metadata7">
    <rdf:RDF>
      <cc:Work
         rdf:about="">
        <dc:format>image/svg+xml</dc:format>
        <dc:type
           rdf:resource="http://purl.org/dc/dcmitype/StillImage" />
        <dc:title></dc:title>
      </cc:Work>
    </rdf:RDF>
  </metadata>
  <g
     inkscape:label="Calque 1"
     inkscape:groupmode="layer"
     id="layer1"
     transform="translate(0,1668.8976)">
    <path
       style="opacity:1;fill:#5fbcd3;fill-opacity:1;stroke:none;stroke-width:13.22900009;stroke-linecap:butt;stroke-linejoin:bevel;stroke-miterlimit:4;stroke-dasharray:none;stroke-dashoffset:0;stroke-opacity:1"
       d="m 12.868428,1379.9401 0,-1371.6463208 1809.249272,0 1809.2494,0 0,1371.6463208 0,1371.6463 -1809.2494,0 -1809.249272,0 0,-1371.6463 z"
       id="path4269"
       inkscape:connector-curvature="0"
       transform="translate(0,-1668.8976)" />
    <path
       style="opacity:1;fill:#5fbcd3;fill-opacity:1;stroke:none;stroke-width:13.22900009;stroke-linecap:butt;stroke-linejoin:bevel;stroke-miterlimit:4;stroke-dasharray:none;stroke-dashoffset:0;stroke-opacity:1"
       d="m 12.868428,-288.95745 0,-1371.64635 1809.249272,0 1809.2494,0 0,1371.64635 0,1371.64625 -1809.2494,0 -1809.249272,0 0,-1371.64625 z M 602.14244,-996.66181 c 143.93531,-63.81919 178.46909,-248.51869 65.50747,-350.35849 -92.00876,-82.9498 -228.09625,-84.1744 -320.44745,-2.8836 -48.14139,42.3757 -69.44727,90.4135 -69.33247,156.3218 0.17048,97.8863 58.31403,174.6749 156.59894,206.81619 42.35573,13.85122 125.13367,8.96576 167.67351,-9.8959 z"
       id="path4219"
       inkscape:connector-curvature="0" />
    <path
       style="opacity:1;fill:#5fbcd3;fill-opacity:1;stroke:none;stroke-width:13.22900009;stroke-linecap:butt;stroke-linejoin:bevel;stroke-miterlimit:4;stroke-dasharray:none;stroke-dashoffset:0;stroke-opacity:1"
       d="m 12.868428,1379.9401 0,-1371.6463208 1809.249272,0 1809.2494,0 0,1371.6463208 0,1371.6463 -1809.2494,0 -1809.249272,0 0,-1371.6463 z M 611.84431,669.64126 c 41.23157,-20.59205 88.17066,-69.52175 107.46725,-112.02476 16.26195,-35.81882 18.92346,-109.33992 5.57151,-153.90478 -11.63596,-38.83734 -65.34291,-97.35237 -111.81752,-121.82789 -33.13452,-17.45005 -45.80477,-19.78318 -107.4341,-19.78318 -61.62932,0 -74.29958,2.33313 -107.43409,19.78318 -46.47461,24.47552 -100.18157,82.99055 -111.81752,121.82789 -4.80877,16.05025 -8.71089,50.31071 -8.67137,76.13436 0.1365,89.22283 56.29112,167.73287 144.01154,201.34331 43.84173,16.79815 145.7619,10.60752 190.1243,-11.54813 z"
       id="path4223"
       inkscape:connector-curvature="0"
       transform="translate(0,-1668.8976)" />
    <path
       style="opacity:1;fill:#5fbcd3;fill-opacity:1;stroke:none;stroke-width:13.22900009;stroke-linecap:butt;stroke-linejoin:bevel;stroke-miterlimit:4;stroke-dasharray:none;stroke-dashoffset:0;stroke-opacity:1"
       d=""
       id="path4225"
       inkscape:connector-curvature="0"
       transform="translate(0,-1668.8976)" />
    <path
       style="opacity:1;fill:#5fbcd3;fill-opacity:1;stroke:none;stroke-width:13.22900009;stroke-linecap:butt;stroke-linejoin:bevel;stroke-miterlimit:4;stroke-dasharray:none;stroke-dashoffset:0;stroke-opacity:1"
       d=""
       id="path4227"
       inkscape:connector-curvature="0"
       transform="translate(0,-1668.8976)" />
    <path
       style="opacity:1;fill:#5fbcd3;fill-opacity:1;stroke:none;stroke-width:13.22900009;stroke-linecap:butt;stroke-linejoin:bevel;stroke-miterlimit:4;stroke-dasharray:none;stroke-dashoffset:0;stroke-opacity:1"
       d=""
       id="path4229"
       inkscape:connector-curvature="0"
       transform="translate(0,-1668.8976)" />
    <path
       style="opacity:1;fill:#5fbcd3;fill-opacity:1;stroke:none;stroke-width:13.22900009;stroke-linecap:butt;stroke-linejoin:bevel;stroke-miterlimit:4;stroke-dasharray:none;stroke-dashoffset:0;stroke-opacity:1"
       d=""
       id="path4231"
       inkscape:connector-curvature="0"
       transform="translate(0,-1668.8976)" />
    <path
       style="opacity:1;fill:#5fbcd3;fill-opacity:1;stroke:none;stroke-width:13.22900009;stroke-linecap:butt;stroke-linejoin:bevel;stroke-miterlimit:4;stroke-dasharray:none;stroke-dashoffset:0;stroke-opacity:1"
       d=""
       id="path4233"
       inkscape:connector-curvature="0"
       transform="translate(0,-1668.8976)" />
    <path
       style="opacity:1;fill:#5fbcd3;fill-opacity:1;stroke:none;stroke-width:13.22900009;stroke-linecap:butt;stroke-linejoin:bevel;stroke-miterlimit:4;stroke-dasharray:none;stroke-dashoffset:0;stroke-opacity:1"
       d=""
       id="path4235"
       inkscape:connector-curvature="0"
       transform="translate(0,-1668.8976)" />
    <path
       style="opacity:1;fill:#5fbcd3;fill-opacity:1;stroke:none;stroke-width:13.22900009;stroke-linecap:butt;stroke-linejoin:bevel;stroke-miterlimit:4;stroke-dasharray:none;stroke-dashoffset:0;stroke-opacity:1"
       d=""
       id="path4237"
       inkscape:connector-curvature="0"
       transform="translate(0,-1668.8976)" />
    <path
       style="opacity:1;fill:#5fbcd3;fill-opacity:1;stroke:none;stroke-width:13.22900009;stroke-linecap:butt;stroke-linejoin:bevel;stroke-miterlimit:4;stroke-dasharray:none;stroke-dashoffset:0;stroke-opacity:1"
       d=""
       id="path4239"
       inkscape:connector-curvature="0"
       transform="translate(0,-1668.8976)" />
    <path
       style="opacity:1;fill:#5fbcd3;fill-opacity:1;stroke:none;stroke-width:13.22900009;stroke-linecap:butt;stroke-linejoin:bevel;stroke-miterlimit:4;stroke-dasharray:none;stroke-dashoffset:0;stroke-opacity:1"
       d=""
       id="path4241"
       inkscape:connector-curvature="0"
       transform="translate(0,-1668.8976)" />
    <path
       style="opacity:1;fill:#5fbcd3;fill-opacity:1;stroke:none;stroke-width:13.22900009;stroke-linecap:butt;stroke-linejoin:bevel;stroke-miterlimit:4;stroke-dasharray:none;stroke-dashoffset:0;stroke-opacity:1"
       d="m 12.868428,1379.9401 0,-1371.6463208 1809.249272,0 1809.2494,0 0,1371.6463208 0,1371.6463 -1809.2494,0 -1809.249272,0 0,-1371.6463 z M 612.41105,666.79212 c 135.8945,-66.48699 163.83034,-246.74909 53.6639,-346.27786 -48.70274,-44.00001 -88.14109,-58.34062 -160.4435,-58.34062 -70.7517,0 -109.9946,13.7435 -156.94155,54.96347 -43.62587,38.30402 -65.18624,81.65117 -69.31515,139.35819 -7.68957,107.47175 52.52978,193.7693 160.06465,229.38123 36.58306,12.11508 130.34708,1.76984 172.97165,-19.08441 z"
       id="path4243"
       inkscape:connector-curvature="0"
       transform="translate(0,-1668.8976)" />
    <path
       style="opacity:1;fill:#5fbcd3;fill-opacity:1;stroke:none;stroke-width:13.22900009;stroke-linecap:butt;stroke-linejoin:bevel;stroke-miterlimit:4;stroke-dasharray:none;stroke-dashoffset:0;stroke-opacity:1"
       d="m 12.868428,1379.9401 0,-1371.6463208 1809.249272,0 1809.2494,0 0,1371.6463208 0,1371.6463 -1809.2494,0 -1809.249272,0 0,-1371.6463 z M 546.08215,685.96642 c 22.76183,-4.22773 14.44075,-5.55601 -36.77336,-5.87006 -98.25109,-0.60248 -157.87166,-32.00951 -196.9045,-103.7257 -42.36112,-77.83133 -33.70077,-168.04389 22.08904,-230.09559 34.8679,-38.7815 59.57741,-54.76866 108.62341,-70.27987 23.64799,-7.47887 25.73459,-9.40042 10.63739,-9.7959 -30.24567,-0.79232 -92.68346,34.82429 -124.58697,71.0686 -84.45347,95.9442 -60.66435,251.22861 48.85709,318.91658 54.86658,33.90941 101.41962,42.15919 168.0579,29.78194 z m 89.29167,-32.7922 C 718.49228,596.43727 753.35799,495.3944 721.78786,402.74119 700.37485,339.89747 610.42539,265.40263 557.11416,266.36082 c -14.21016,0.25543 -11.70425,2.44385 11.03201,9.63438 48.8748,15.45706 73.728,31.46778 107.97511,69.55881 49.67071,55.24579 61.71085,113.90444 39.0456,190.22673 -13.50469,45.47521 -64.01654,104.33073 -108.39162,126.29602 -17.20093,8.51432 -25.844,15.48319 -19.20681,15.48637 6.63719,0.003 28.1496,-10.97182 47.80537,-24.38891 z M 518.50213,260.63753 c -7.07887,-1.8499 -18.66248,-1.8499 -25.74135,0 -7.07887,1.84991 -1.28707,3.36346 12.87067,3.36346 14.15775,0 19.94955,-1.51355 12.87068,-3.36346 z"
       id="path4245"
       inkscape:connector-curvature="0"
       transform="translate(0,-1668.8976)" />
    <path
       style="opacity:1;fill:#5fbcd3;fill-opacity:1;stroke:none;stroke-width:13.22900009;stroke-linecap:butt;stroke-linejoin:bevel;stroke-miterlimit:4;stroke-dasharray:none;stroke-dashoffset:0;stroke-opacity:1"
       d="m 12.868428,1379.9401 0,-1371.6463208 1809.249272,0 1809.2494,0 0,1371.6463208 0,1371.6463 -1809.2494,0 -1809.249272,0 0,-1371.6463 z M 470.1991,680.85778 c -53.43506,-9.75898 -104.0807,-33.3778 -127.63961,-59.5253 -6.7558,-7.49811 -20.77772,-28.52614 -31.15981,-46.72896 -10.38209,-18.20281 -18.9164,-29.60697 -18.96513,-25.34258 -0.18033,15.7803 43.35203,75.55239 69.61373,95.58317 34.19252,26.07991 94.30209,47.12073 132.55116,46.39837 23.49906,-0.44378 18.58923,-2.5334 -24.40034,-10.3847 z m 84.92317,-0.37759 c -2.4439,-2.44389 -8.7873,-2.70518 -14.09646,-0.58065 -5.86706,2.3478 -4.12432,4.09054 4.44345,4.44345 7.75305,0.31934 12.0969,-1.41892 9.65301,-3.86282 z m 64.45454,-17.53632 c 2.57662,-4.16911 -0.37552,-5.4021 -6.92063,-2.89051 -12.74135,4.88932 -15.07257,10.1609 -4.49337,10.1609 3.80634,0 8.94264,-3.2717 11.414,-7.27043 z m 73.27056,-65.80267 c 19.24302,-27.76768 37.42585,-72.47029 31.77561,-78.12053 -1.84212,-1.84212 -7.26794,9.72989 -12.05738,25.7156 -4.85666,16.21007 -25.708,47.76297 -47.14506,71.34135 -29.12827,32.03786 -32.66894,38.04946 -14.61992,24.82272 13.09939,-9.59954 32.02042,-29.29115 42.04675,-43.75914 z m -402.832,-75.39938 c -2.3478,-5.86707 -4.09054,-4.12432 -4.44345,4.44345 -0.31934,7.75304 1.41892,12.0969 3.86282,9.65301 2.44389,-2.4439 2.70518,-8.78731 0.58065,-14.09646 z m -7.10118,-62.87325 c -1.6905,-11.17957 -3.11881,-3.77847 -3.17403,16.44688 -0.0552,20.22535 1.32792,29.37226 3.07364,20.32648 1.74572,-9.04579 1.7909,-25.59381 0.10039,-36.77336 z m 448.62524,-7.4558 c -1.68514,-11.12394 -3.06389,-2.02254 -3.06389,20.22535 0,22.24788 1.37875,31.34929 3.06389,20.22534 1.68514,-11.12394 1.68514,-29.32675 0,-40.45069 z M 295.21208,409.1234 c 3.60433,-16.11346 2.92198,-19.08874 -2.53008,-11.032 -4.10601,6.0676 -7.51614,17.37541 -7.57809,25.12846 -0.15032,18.81654 4.05917,12.94614 10.10817,-14.09646 z m 423.67007,-8.91624 c -8.01369,-12.49771 -8.22124,-12.48167 -4.19786,0.32441 2.32796,7.40972 4.49393,17.33852 4.81328,22.06402 0.41907,6.20116 1.58712,6.11089 4.19786,-0.32442 1.98948,-4.90393 -0.17651,-14.83274 -4.81328,-22.06401 z M 421.05272,283.97879 c 24.27042,-9.8573 38.30017,-18.00091 31.17721,-18.09693 -36.71669,-0.49489 -116.54304,54.0721 -141.11453,96.46187 -11.04774,19.05912 -5.15646,14.97081 25.74135,-17.86347 28.93528,-30.74873 52.32868,-47.55875 84.19597,-60.50147 z m 282.86615,84.15442 C 681.4603,326.16901 596.16971,265.44181 560.30811,265.88186 c -7.82428,0.096 5.63165,8.23503 29.90207,18.0867 31.91519,12.95478 54.3054,29.05279 80.90139,58.16612 41.26446,45.17018 44.39561,47.65149 32.8073,25.99853 z"
       id="path4247"
       inkscape:connector-curvature="0"
       transform="translate(0,-1668.8976)" />
    <path
       style="opacity:1;fill:#5fbcd3;fill-opacity:1;stroke:none;stroke-width:13.22900009;stroke-linecap:butt;stroke-linejoin:bevel;stroke-miterlimit:4;stroke-dasharray:none;stroke-dashoffset:0;stroke-opacity:1"
       d="m 12.868428,1379.9401 0,-1371.6463208 1809.249272,0 1809.2494,0 0,1371.6463208 0,1371.6463 -1809.2494,0 -1809.249272,0 0,-1371.6463 z M 465.18076,681.13304 c -24.27042,-5.30088 -45.34596,-8.43241 -46.83455,-6.95897 -1.48858,1.47345 6.78543,4.78436 18.38668,7.35758 11.60126,2.57323 24.4028,5.78262 28.44787,7.13198 4.04507,1.34936 15.62867,2.37553 25.74135,2.28038 10.11267,-0.0952 -1.47094,-4.51009 -25.74135,-9.81097 z m -55.16004,-13.80925 c 0,-1.58975 -5.1363,-4.86145 -11.414,-7.27043 -6.5451,-2.51159 -9.49725,-1.2786 -6.92062,2.89047 4.31909,6.98844 18.33462,10.33661 18.33462,4.37996 z m 285.46246,-78.01092 c 12.16172,-18.20281 24.21186,-41.37003 26.77811,-51.48271 2.56624,-10.11267 -3.48944,-2.2508 -13.45707,17.47083 -9.96762,19.72163 -30.80013,49.19076 -46.29448,65.48695 -19.30891,20.30817 -22.03177,25.22377 -8.65515,15.62519 10.73401,-7.70233 29.46688,-28.89745 41.62859,-47.10026 z m -336.94517,48.94525 c 0,-1.3956 -7.4466,-8.8422 -16.54801,-16.54801 l -16.54801,-14.01056 14.01056,16.54801 c 13.16647,15.55105 19.08546,19.89616 19.08546,14.01056 z M 314.40998,581.9582 c -4.32971,-8.09014 -9.52701,-14.70935 -11.54954,-14.70935 -2.02254,0 -0.13481,6.61921 4.19487,14.70935 4.32971,8.09014 9.52701,14.70934 11.54954,14.70934 2.02253,0 0.13481,-6.6192 -4.19487,-14.70934 z M 282.73334,466.26209 c -1.86473,-7.15586 -3.51305,-3.08185 -3.66293,9.05336 -0.14989,12.13521 1.3758,17.99 3.39041,13.01065 2.01462,-4.97935 2.13725,-14.90816 0.27249,-22.06401 z m 448.60804,-7.49465 c -1.84991,-7.07887 -3.36346,-1.28707 -3.36346,12.87068 0,14.15774 1.51355,19.94954 3.36346,12.87067 1.8499,-7.07887 1.8499,-18.66248 0,-25.74135 z m -441.32601,-47.3457 c -2.3478,-5.86707 -4.09054,-4.12432 -4.44345,4.44345 -0.31934,7.75304 1.41892,12.0969 3.86282,9.65301 2.44389,-2.4439 2.70518,-8.78731 0.58065,-14.09646 z m 105.296,-122.55723 c 8.33595,-7.82396 -20.03833,10.13589 -41.74181,26.42099 -12.84533,9.63843 -29.08316,26.42094 -36.08407,37.29448 -10.63436,16.51688 12.67676,-2.56777 77.82588,-63.71547 z m 279.17017,46.10525 c -30.41053,-31.2585 -85.40623,-66.90181 -92.41372,-59.89432 -1.67179,1.67178 9.88133,8.86614 25.67359,15.98746 15.79226,7.12131 42.99191,27.49679 60.44366,45.27883 17.45175,17.78204 33.38526,32.33098 35.40779,32.33098 2.02254,0 -11.07756,-15.16633 -29.11132,-33.70295 z M 424.73006,280.41664 c 6.06761,-3.92118 7.72241,-7.12942 3.67734,-7.12942 -4.04507,0 -12.31908,3.20824 -18.38668,7.12942 -6.06761,3.92119 -7.72241,7.12943 -3.67734,7.12943 4.04507,0 12.31908,-3.20824 18.38668,-7.12943 z"
       id="path4249"
       inkscape:connector-curvature="0"
       transform="translate(0,-1668.8976)" />
    <path
       style="opacity:1;fill:#5fbcd3;fill-opacity:1;stroke:none;stroke-width:13.22900009;stroke-linecap:butt;stroke-linejoin:bevel;stroke-miterlimit:4;stroke-dasharray:none;stroke-dashoffset:0;stroke-opacity:1"
       d="m 12.868428,1379.9401 0,-1371.6463208 1809.249272,0 1809.2494,0 0,1371.6463208 0,1371.6463 -1809.2494,0 -1809.249272,0 0,-1371.6463 z M 463.34209,680.05275 c -5.05634,-2.04028 -13.33034,-2.04028 -18.38668,0 -5.05634,2.04028 -0.91934,3.70959 9.19334,3.70959 10.11267,0 14.24968,-1.66931 9.19334,-3.70959 z m -53.32137,-12.72896 c 0,-1.58975 -5.1363,-4.86145 -11.414,-7.27043 -6.5451,-2.51159 -9.49725,-1.2786 -6.92062,2.89047 4.31909,6.98844 18.33462,10.33661 18.33462,4.37996 z m -51.48271,-29.30501 c 0,-1.52724 -5.7918,-7.31905 -12.87067,-12.87068 -11.66493,-9.14826 -11.92506,-8.88813 -2.7768,2.7768 9.60792,12.25103 15.64747,16.14702 15.64747,10.09388 z m 338.97522,-49.9397 c 11.16713,-20.86598 3.92437,-15.95957 -15.39236,10.42713 -10.82795,14.79101 -12.60391,19.92787 -4.65891,13.47555 7.06166,-5.73491 16.08472,-16.49112 20.05127,-23.90268 z m -0.6603,-228.94576 c 0,-1.2016 -14.06581,-15.26741 -31.25736,-31.25736 l -31.25736,-29.07264 29.07264,31.25736 c 27.03726,29.06903 33.44208,34.63701 33.44208,29.07264 z M 394.69849,290.19497 c 1.68544,-1.33301 1.31312,-2.42365 -0.82738,-2.42365 -7.5623,0 -61.16751,45.53616 -67.82839,57.61837 -3.71468,6.73806 9.52373,-2.37896 29.41869,-20.26002 19.89494,-17.88107 37.55163,-33.60168 39.23708,-34.9347 z m 235.96239,8.79722 c 0,-4.4608 -41.48505,-26.03047 -49.27881,-25.62194 -3.23468,0.16955 5.70238,6.65003 19.86012,14.40107 28.98824,15.87039 29.41869,16.03457 29.41869,11.22087 z M 424.73006,280.41664 c 6.06761,-3.92118 7.72241,-7.12942 3.67734,-7.12942 -4.04507,0 -12.31908,3.20824 -18.38668,7.12942 -6.06761,3.92119 -7.72241,7.12943 -3.67734,7.12943 4.04507,0 12.31908,-3.20824 18.38668,-7.12943 z"
       id="path4251"
       inkscape:connector-curvature="0"
       transform="translate(0,-1668.8976)" />
    <path
       style="opacity:1;fill:#5fbcd3;fill-opacity:1;stroke:none;stroke-width:13.22900009;stroke-linecap:butt;stroke-linejoin:bevel;stroke-miterlimit:4;stroke-dasharray:none;stroke-dashoffset:0;stroke-opacity:1"
       d="m 12.868428,1379.9401 0,-1371.6463208 1809.249272,0 1809.2494,0 0,1371.6463208 0,1371.6463 -1809.2494,0 -1809.249272,0 0,-1371.6463 z M 690.43638,598.50621 c 9.14826,-11.66492 8.88813,-11.92506 -2.77679,-2.77679 -7.07888,5.55163 -12.87068,11.34343 -12.87068,12.87067 0,6.05315 6.03955,2.15715 15.64747,-10.09388 z M 362.21535,317.19 c 7.32147,-8.09014 11.65697,-14.70934 9.63444,-14.70934 -2.02254,0 -9.66764,6.6192 -16.98911,14.70934 -7.32148,8.09014 -11.65697,14.70935 -9.63444,14.70935 2.02254,0 9.66764,-6.61921 16.98911,-14.70935 z m 246.38151,-32.30915 c 0,-1.58976 -5.1363,-4.86145 -11.41399,-7.27043 -6.54511,-2.51159 -9.49725,-1.27861 -6.92063,2.89046 4.31909,6.98844 18.33462,10.33661 18.33462,4.37997 z"
       id="path4253"
       inkscape:connector-curvature="0"
       transform="translate(0,-1668.8976)" />
    <path
       style="opacity:1;fill:#5fbcd3;fill-opacity:1;stroke:none;stroke-width:13.22900009;stroke-linecap:butt;stroke-linejoin:bevel;stroke-miterlimit:4;stroke-dasharray:none;stroke-dashoffset:0;stroke-opacity:1"
       d="m 12.868428,1379.9401 0,-1371.6463208 1809.249272,0 1809.2494,0 0,1371.6463208 0,1371.6463 -1809.2494,0 -1809.249272,0 0,-1371.6463 z M 366.83081,311.674 c 9.14826,-11.66492 8.88813,-11.92506 -2.77679,-2.77679 -12.25103,9.60791 -16.14703,15.64747 -10.09389,15.64747 1.52725,0 7.31905,-5.79181 12.87068,-12.87068 z"
       id="path4255"
       inkscape:connector-curvature="0"
       transform="translate(0,-1668.8976)" />
    <path
       style="opacity:1;fill:#5fbcd3;fill-opacity:1;stroke:none;stroke-width:13.22900009;stroke-linecap:butt;stroke-linejoin:bevel;stroke-miterlimit:4;stroke-dasharray:none;stroke-dashoffset:0;stroke-opacity:1"
       d="m 12.868428,1379.9401 0,-1371.6463208 1809.249272,0 1809.2494,0 0,1371.6463208 0,1371.6463 -1809.2494,0 -1809.249272,0 0,-1371.6463 z"
       id="path4257"
       inkscape:connector-curvature="0"
       transform="translate(0,-1668.8976)" />
    <path
       style="opacity:1;fill:#5fbcd3;fill-opacity:1;stroke:none;stroke-width:13.22900009;stroke-linecap:butt;stroke-linejoin:bevel;stroke-miterlimit:4;stroke-dasharray:none;stroke-dashoffset:0;stroke-opacity:1"
       d="m 12.868428,1379.9401 0,-1371.6463208 1809.249272,0 1809.2494,0 0,1371.6463208 0,1371.6463 -1809.2494,0 -1809.249272,0 0,-1371.6463 z"
       id="path4259"
       inkscape:connector-curvature="0"
       transform="translate(0,-1668.8976)" />
    <path
       style="opacity:1;fill:#5fbcd3;fill-opacity:1;stroke:none;stroke-width:13.22900009;stroke-linecap:butt;stroke-linejoin:bevel;stroke-miterlimit:4;stroke-dasharray:none;stroke-dashoffset:0;stroke-opacity:1"
       d="m 12.868428,1379.9401 0,-1371.6463208 1809.249272,0 1809.2494,0 0,1371.6463208 0,1371.6463 -1809.2494,0 -1809.249272,0 0,-1371.6463 z"
       id="path4261"
       inkscape:connector-curvature="0"
       transform="translate(0,-1668.8976)" />
    <path
       style="opacity:1;fill:#5fbcd3;fill-opacity:1;stroke:none;stroke-width:13.22900009;stroke-linecap:butt;stroke-linejoin:bevel;stroke-miterlimit:4;stroke-dasharray:none;stroke-dashoffset:0;stroke-opacity:1"
       d="m 12.868428,1379.9401 0,-1371.6463208 1809.249272,0 1809.2494,0 0,1371.6463208 0,1371.6463 -1809.2494,0 -1809.249272,0 0,-1371.6463 z"
       id="path4263"
       inkscape:connector-curvature="0"
       transform="translate(0,-1668.8976)" />
    <path
       style="opacity:1;fill:#5fbcd3;fill-opacity:1;stroke:none;stroke-width:13.22900009;stroke-linecap:butt;stroke-linejoin:bevel;stroke-miterlimit:4;stroke-dasharray:none;stroke-dashoffset:0;stroke-opacity:1"
       d="m 12.868428,1379.9401 0,-1371.6463208 1809.249272,0 1809.2494,0 0,1371.6463208 0,1371.6463 -1809.2494,0 -1809.249272,0 0,-1371.6463 z"
       id="path4265"
       inkscape:connector-curvature="0"
       transform="translate(0,-1668.8976)" />
    <path
       style="opacity:1;fill:#5fbcd3;fill-opacity:1;stroke:none;stroke-width:13.22900009;stroke-linecap:butt;stroke-linejoin:bevel;stroke-miterlimit:4;stroke-dasharray:none;stroke-dashoffset:0;stroke-opacity:1"
       d="m 12.868428,1379.9401 0,-1371.6463208 1809.249272,0 1809.2494,0 0,1371.6463208 0,1371.6463 -1809.2494,0 -1809.249272,0 0,-1371.6463 z"
       id="path4267"
       inkscape:connector-curvature="0"
       transform="translate(0,-1668.8976)" />
    <path
       style="opacity:1;fill:#5fbcd3;fill-opacity:1;stroke:none;stroke-width:13.22900009;stroke-linecap:butt;stroke-linejoin:bevel;stroke-miterlimit:4;stroke-dasharray:none;stroke-dashoffset:0;stroke-opacity:1"
       d="M 406.34338,667.43715 C 326.4158,629.74235 283.14586,562.16062 283.33534,475.31545 c 0.1502,-68.8419 15.96108,-105.43026 64.87922,-150.13868 90.76666,-82.95561 224.19074,-82.84264 315.12573,0.26682 47.80334,43.68956 66.62241,86.32108 66.15877,149.87186 -0.62524,85.70112 -61.10051,170.79693 -140.64168,197.89932 -53.1207,18.10004 -137.55129,15.42733 -182.514,-5.77762 z"
       id="path4221"
       inkscape:connector-curvature="0"
       transform="translate(0,-1668.8976)" />
    <path
       style="opacity:1;fill:#ffff00;fill-opacity:1;stroke:none;stroke-width:13.22900009;stroke-linecap:butt;stroke-linejoin:bevel;stroke-miterlimit:4;stroke-dasharray:none;stroke-dashoffset:0;stroke-opacity:1"
       id="path4586"
       sodipodi:type="arc"
       sodipodi:cx="402.75452"
       sodipodi:cy="-1348.2239"
       sodipodi:rx="228.31085"
       sodipodi:ry="214.68246"
       sodipodi:start="4.0267189"
       sodipodi:end="3.9133598"
       sodipodi:open="true"
       d="m 258.18996,-1514.387 a 228.31085,214.68246 0 0 1 317.10866,25.5741 228.31085,214.68246 0 0 1 -18.20113,298.7847 228.31085,214.68246 0 0 1 -318.14016,-8.6414 228.31085,214.68246 0 0 1 0.17151,-299.2744" />
  </g>
</svg>
